<svg xmlns="http://www.w3.org/2000/svg" xmlns:xlink="http://www.w3.org/1999/xlink" version="1.1" id="Laag_1" x="0px" y="0px" style="enable-background:new 0 0 367.7 134.2;" xml:space="preserve" viewBox="34 34 299.7 67.1">
<style type="text/css">
	.st0{fill:#FFFFFF;}
	.st1{fill:#FF6B6C;}
</style>
<path class="st0" d="M326,34h7.7v49.6H326V34z"/>
<path class="st0" d="M34,34h7.7v49.6H34V34z"/>
<path class="st0" d="M138.3,55.1c2.1-3.3,6.4-5.3,10.2-5.3c10.1,0,16.9,8,16.9,17.4s-6.9,17.4-16.9,17.4c-3.8,0-8.2-2-10.2-5.3v21.1  h-7.7V50.8h7.7v4.5V55.1z M138.3,67.1c0,5.7,3.8,10.5,9.8,10.5c5.8,0,9.6-4.8,9.6-10.5s-3.8-10.5-9.6-10.5  C142.1,56.6,138.3,61.4,138.3,67.1z"/>
<path class="st0" d="M172,50.6h7.7v33H172V50.6z"/>
<path class="st0" d="M189.5,50.6h7.7v4.6c2.1-3.5,5.9-5.5,10.8-5.5c4.7,0,8.1,1.7,9.9,4.5c1.6,2.5,2.1,5.2,2.1,9.8v19.6h-7.7V66.5  c0-5.7-1.6-10-7.2-10c-5.4,0-7.9,4.3-7.9,10v17.1h-7.7L189.5,50.6L189.5,50.6z"/>
<path class="st0" d="M260.6,85.3c0,5.5-1.7,9.5-4.7,12c-3,2.6-7.4,3.8-13,3.8c-5.5,0-9.6-1.7-12.3-4.3c-2.8-2.6-4.2-6-4.4-9.4h7.8  c0.4,3.5,3.3,6.7,8.9,6.7c6.2,0,9.9-2.6,9.9-8.9v-6.1c-2.1,3.3-6.4,5.3-10.2,5.3c-10.1,0-16.9-8-16.9-17.4s6.9-17.4,16.9-17.4  c3.8,0,8.2,2,10.2,5.3v-4.5h7.7v34.7L260.6,85.3z M233.3,67.1c0,5.7,3.8,10.5,9.6,10.5c6,0,9.8-4.8,9.8-10.5s-3.8-10.5-9.8-10.5  C237.1,56.6,233.3,61.4,233.3,67.1z"/>
<path class="st1" d="M123.7,67.1c0-9.4-6.9-17.4-17.5-17.4c-10.5,0-17.4,8-17.4,17.4c0,6.3,3.2,12.1,8.5,15.1c-3.4,0.6-7.2,1-11.2,1  s-7.8-0.4-11.2-1c5.3-3,8.5-8.7,8.5-15.1c0-9.4-6.9-17.4-17.5-17.4c-10.5,0-17.4,8-17.4,17.4c0,3.5,1,6.9,2.8,9.7  c4.3,7.8,17.8,13.1,34.8,13.1c16.3,0,29.5-5,34.3-12.3C122.5,74.7,123.7,71,123.7,67.1z M66,56.6c6,0,9.8,4.8,9.8,10.5  S72,77.6,66,77.6c-5.8,0-9.6-4.8-9.6-10.5S60.2,56.6,66,56.6z M106.2,56.6c6,0,9.8,4.8,9.8,10.5s-3.8,10.5-9.8,10.5  c-5.8,0-9.6-4.8-9.6-10.5S100.4,56.6,106.2,56.6z"/>
<path class="st0" d="M273,72.6c3.2,0,5.7,2.5,5.7,5.7S276.2,84,273,84s-5.7-2.5-5.7-5.7S269.8,72.6,273,72.6z"/>
<path class="st0" d="M285.6,50.6h7.7v4.6c2.1-3.5,5.9-5.5,10.8-5.5c4.7,0,8.1,1.7,9.9,4.5c1.6,2.5,2.1,5.2,2.1,9.8v19.6h-7.7V66.5  c0-5.7-1.6-10-7.2-10c-5.4,0-7.9,4.3-7.9,10v17.1h-7.7L285.6,50.6L285.6,50.6z"/>
</svg>